<svg xmlns="http://www.w3.org/2000/svg" xmlns:svg="http://www.w3.org/2000/svg" xmlns:xlink="http://www.w3.org/1999/xlink" id="svg2" width="744.094" height="1052.362" version="1.1"><metadata id="metadata7"/><g id="layer1"><g id="g4127"><path id="path2991" d="m 249.96895,260.68307 -98.54038,56.89231 -98.54037,-56.89231 0,-113.78463 98.54037,-56.892306 98.54038,56.892316 z" transform="matrix(0.2787934,0,0,0.2787934,37.782716,64.552415)" style="fill:purple;fill-rule:nonzero;stroke:#500;stroke-width:10.76065646;stroke-linejoin:round;stroke-miterlimit:4;stroke-dasharray:none"/><use id="use3985" x="0" y="0" xlink:href="#path2991"/><use id="use3987" x="0" y="0" transform="translate(27.472406,47.583602)" xlink:href="#path2991"/><use id="use3989" x="0" y="0" transform="translate(54.944812,95.167204)" xlink:href="#path2991"/><use id="use3991" x="0" y="0" transform="translate(82.417218,142.75081)" xlink:href="#path2991"/><use id="use3993" x="0" y="0" transform="translate(109.88962,190.33441)" xlink:href="#path2991"/><use id="use3995" x="0" y="0" transform="translate(137.36203,237.91801)" xlink:href="#path2991"/><use id="use3997" x="0" y="0" transform="translate(164.83444,285.50161)" xlink:href="#path2991"/><use id="use3999" x="0" y="0" transform="translate(192.30684,333.08522)" xlink:href="#path2991"/><use id="use4001" x="0" y="0" transform="translate(54.944812,0)" xlink:href="#path2991"/><use id="use4003" x="0" y="0" transform="translate(82.417218,47.583602)" xlink:href="#path2991"/><use id="use4005" x="0" y="0" transform="translate(109.88962,95.167204)" xlink:href="#path2991"/><use id="use4007" x="0" y="0" transform="translate(137.36203,142.75081)" xlink:href="#path2991"/><use id="use4009" x="0" y="0" transform="translate(164.83444,190.33441)" xlink:href="#path2991"/><use id="use4011" x="0" y="0" transform="translate(192.30684,237.91801)" xlink:href="#path2991"/><use id="use4013" x="0" y="0" transform="translate(219.77925,285.50161)" xlink:href="#path2991"/><use id="use4015" x="0" y="0" transform="translate(247.25165,333.08522)" xlink:href="#path2991"/><use id="use4017" x="0" y="0" transform="translate(109.88962,0)" xlink:href="#path2991"/><use id="use4019" x="0" y="0" transform="translate(137.36203,47.583602)" xlink:href="#path2991"/><use id="use4021" x="0" y="0" transform="translate(164.83444,95.167204)" xlink:href="#path2991"/><use id="use4023" x="0" y="0" transform="translate(192.30684,142.75081)" xlink:href="#path2991"/><use id="use4025" x="0" y="0" transform="translate(219.77925,190.33441)" xlink:href="#path2991"/><use id="use4027" x="0" y="0" transform="translate(247.25165,237.91801)" xlink:href="#path2991"/><use id="use4029" x="0" y="0" transform="translate(274.72406,285.50161)" xlink:href="#path2991"/><use id="use4031" x="0" y="0" transform="translate(302.19647,333.08522)" xlink:href="#path2991"/><use id="use4033" x="0" y="0" transform="translate(164.83444,0)" xlink:href="#path2991"/><use id="use4035" x="0" y="0" transform="translate(192.30684,47.583602)" xlink:href="#path2991"/><use id="use4037" x="0" y="0" transform="translate(219.77925,95.167204)" xlink:href="#path2991"/><use id="use4039" x="0" y="0" transform="translate(247.25165,142.75081)" xlink:href="#path2991"/><use id="use4041" x="0" y="0" transform="translate(274.72406,190.33441)" xlink:href="#path2991"/><use id="use4043" x="0" y="0" transform="translate(302.19647,237.91801)" xlink:href="#path2991"/><use id="use4045" x="0" y="0" transform="translate(329.66887,285.50161)" xlink:href="#path2991"/><use id="use4047" x="0" y="0" transform="translate(357.14128,333.08522)" xlink:href="#path2991"/><use id="use4049" x="0" y="0" transform="translate(219.77925,0)" xlink:href="#path2991"/><use id="use4051" x="0" y="0" transform="translate(247.25165,47.583602)" xlink:href="#path2991"/><use id="use4053" x="0" y="0" transform="translate(274.72406,95.167204)" xlink:href="#path2991"/><use id="use4055" x="0" y="0" transform="translate(302.19647,142.75081)" xlink:href="#path2991"/><use id="use4057" x="0" y="0" transform="translate(329.66887,190.33441)" xlink:href="#path2991"/><use id="use4059" x="0" y="0" transform="translate(357.14128,237.91801)" xlink:href="#path2991"/><use id="use4061" x="0" y="0" transform="translate(384.61368,285.50161)" xlink:href="#path2991"/><use id="use4063" x="0" y="0" transform="translate(412.08609,333.08522)" xlink:href="#path2991"/><use id="use4065" x="0" y="0" transform="translate(274.72406,0)" xlink:href="#path2991"/><use id="use4067" x="0" y="0" transform="translate(302.19647,47.583602)" xlink:href="#path2991"/><use id="use4069" x="0" y="0" transform="translate(329.66887,95.167204)" xlink:href="#path2991"/><use id="use4071" x="0" y="0" transform="translate(357.14128,142.75081)" xlink:href="#path2991"/><use id="use4073" x="0" y="0" transform="translate(384.61368,190.33441)" xlink:href="#path2991"/><use id="use4075" x="0" y="0" transform="translate(412.08609,237.91801)" xlink:href="#path2991"/><use id="use4077" x="0" y="0" transform="translate(439.5585,285.50161)" xlink:href="#path2991"/><use id="use4079" x="0" y="0" transform="translate(467.0309,333.08522)" xlink:href="#path2991"/><use id="use4081" x="0" y="0" transform="translate(329.66887,0)" xlink:href="#path2991"/><use id="use4083" x="0" y="0" transform="translate(357.14128,47.583602)" xlink:href="#path2991"/><use id="use4085" x="0" y="0" transform="translate(384.61368,95.167204)" xlink:href="#path2991"/><use id="use4087" x="0" y="0" transform="translate(412.08609,142.75081)" xlink:href="#path2991"/><use id="use4089" x="0" y="0" transform="translate(439.5585,190.33441)" xlink:href="#path2991"/><use id="use4091" x="0" y="0" transform="translate(467.0309,237.91801)" xlink:href="#path2991"/><use id="use4093" x="0" y="0" transform="translate(494.50331,285.50161)" xlink:href="#path2991"/><use id="use4095" x="0" y="0" transform="translate(521.97571,333.08522)" xlink:href="#path2991"/><use id="use4097" x="0" y="0" transform="translate(384.61368,0)" xlink:href="#path2991"/><use id="use4099" x="0" y="0" transform="translate(412.08609,47.583602)" xlink:href="#path2991"/><use id="use4101" x="0" y="0" transform="translate(439.5585,95.167204)" xlink:href="#path2991"/><use id="use4103" x="0" y="0" transform="translate(467.0309,142.75081)" xlink:href="#path2991"/><use id="use4105" x="0" y="0" transform="translate(494.50331,190.33441)" xlink:href="#path2991"/><use id="use4107" x="0" y="0" transform="translate(521.97571,237.91801)" xlink:href="#path2991"/><use id="use4109" x="0" y="0" transform="translate(549.44812,285.50161)" xlink:href="#path2991"/><use id="use4111" x="0" y="0" transform="translate(576.92053,333.08522)" xlink:href="#path2991"/></g><text xml:space="preserve" style="font-size:40px;font-style:normal;font-variant:normal;font-weight:400;font-stretch:normal;line-height:125%;letter-spacing:0;word-spacing:0;fill:#000;fill-opacity:1;stroke:none;font-family:Impact;-inkscape-font-specification:Impact" id="text4113" x="155.563" y="16.956"><tspan id="tspan4117" x="155.563" y="16.956">http://wiki.hive13.org/index.php/Inkscape_Honeycomb_Tiles</tspan></text><use id="use4039-8" width="1" height="1" x="0" y="0" transform="translate(188.304,464.80885)" xlink:href="#path2991"/><use id="use4041-2" width="1" height="1" x="0" y="0" transform="translate(215.77641,512.39245)" xlink:href="#path2991"/><use id="use4053-4" width="1" height="1" x="0" y="0" transform="translate(215.77641,417.22524)" xlink:href="#path2991"/><use id="use4055-5" width="1" height="1" x="0" y="0" transform="translate(243.24882,464.80885)" xlink:href="#path2991" style="fill:red"/><use id="use4057-5" width="1" height="1" x="0" y="0" transform="translate(270.72122,512.39245)" xlink:href="#path2991"/><use id="use4069-1" width="1" height="1" x="0" y="0" transform="translate(270.72122,417.22524)" xlink:href="#path2991"/><use id="use4071-7" width="1" height="1" x="0" y="0" transform="translate(298.19363,464.80885)" xlink:href="#path2991"/></g></svg>